# xmcd
#
# Track frame offsets:
#	150
#	12145
#	23272
#	39041
#	55020
#	69534
#	83168
#	95752
#	109572
#	120329
#	133450
#
# Disc length: 1973 seconds
#
# Revision: 0
# Processed by: cddbd v1.4PL0 Copyright (c) Steve Scherf et al.
# Submitted via: EasyCDDAExtractor 4.6.0.1
#
DISCID=7c07b30b
DTITLE=Williams, Bradley Jaye - Tex-Mex Gumbo
DYEAR=1999
DGENRE=Other
TTITLE0=Don't Talk to Me About Tomorrow
TTITLE1=El Jilguero
TTITLE2=Good-Bye Louisiana
TTITLE3=Guadalupe
TTITLE4=You Waltzed Away (With My Heart)
TTITLE5=Only the Rose
TTITLE6=Victoria
TTITLE7=A La Belle Etoille
TTITLE8=Mentiras
TTITLE9=Broken Up and Blue
TTITLE10=Amede Two Step
EXTD=
EXTT0=
EXTT1=
EXTT2=
EXTT3=
EXTT4=
EXTT5=
EXTT6=
EXTT7=
EXTT8=
EXTT9=
EXTT10=
PLAYORDER=
